<?xml version="1.0" encoding="utf-8"?>
<!DOCTYPE svg PUBLIC "-//W3C//DTD SVG 1.1//EN" "http://www.w3.org/Graphics/SVG/1.1/DTD/svg11.dtd">
<svg version="1.1" xmlns="http://www.w3.org/2000/svg" xmlns:xlink="http://www.w3.org/1999/xlink" x="0px" y="0px" viewBox="0 0 1000 1000" enable-background="new 0 0 1000 1000" xml:space="preserve">
<metadata>  </metadata>
<g><g transform="translate(0.000000,511.000000) scale(0.100000,-0.100000)"><path  fill="#28497E"  d="M4681.2,5004.1c-1218.5-143.1-1910.8-516-2365.5-1279.8c-373-623.3-651.4-1537.8-654-2153.5c-2.5-222.2,5.1-260.6,92-475.1l94.5-235l-186.5-314.2C1273.5-105,1079.3-513.7,1079.3-682.3c0-183.9,183.9-349.9,500.7-454.7l160.9-53.6l-43.4-132.8c-92-281-35.8-523.7,196.7-855.8l102.2-145.6l-48.5-140.5c-61.3-171.2-63.9-403.6-12.8-531.3c115-273.3,531.3-516,881.3-516c63.9,2.6,337.2,38.3,610.5,84.3l493,84.3l25.5-66.4c38.3-99.6,7.7-362.7-61.3-513.4c-66.4-143.1-247.8-347.4-380.6-424.1c-71.5-43.4-76.6-53.6-63.9-148.2c7.7-56.2,25.5-145.6,40.9-199.2l28.1-94.5l2620.9,5.1l2618.4,7.7l61.3,166l61.3,166l-337.2,344.9c-395.9,403.6-631,720.4-825.1,1111.2c-163.5,324.4-242.7,608-247.8,886.4c-5.1,245.2,40.9,347.4,447.1,955.4c633.5,950.3,876.2,1514.8,975.8,2278.6c97.1,730.6,7.7,1277.3-306.5,1900.6c-546.7,1085.7-1504.6,1790.7-2631.2,1936.3C5708.2,4996.4,4839.6,5021.9,4681.2,5004.1z M6009.6,4549.4C6944.5,4401.2,7756.9,3770.2,8232,2825c227.4-454.7,293.8-779.1,273.3-1305.4c-35.8-837.9-258-1425.4-919.6-2421.7c-181.4-273.3-370.4-582.4-421.5-689.7c-94.5-194.1-94.5-201.8-94.5-516c2.5-383.2,53.6-590.1,242.7-988.6c196.7-413.8,452.1-784.2,776.6-1124l150.7-160.9H6165.4c-1652.8,0-2071.7,7.7-2056.4,33.2c12.8,15.3,53.7,81.7,92,145.6c160.9,255.4,214.6,602.9,135.4,904.3c-56.2,214.6-140.5,398.5-183.9,398.5c-20.4,0-309.1-46-641.2-104.7c-656.5-112.4-817.4-117.5-991.2-28.1c-224.8,115-255.5,206.9-176.3,513.5c66.4,263.1,56.2,316.7-115,569.7c-84.3,125.2-160.9,255.4-168.6,291.2c-10.2,35.8,2.6,130.3,25.5,212c48.5,173.7,53.6,449.6,7.7,536.4c-25.5,51.1-69,71.5-240.1,107.3c-235,51.1-365.3,109.8-365.3,163.5c0,66.4,309.1,643.7,572.2,1067.8l247.8,403.6l-132.8,309.1l-132.8,309.1l17.9,214.6c46,592.6,344.9,1476.5,661.6,1949.1c339.8,510.9,947.7,845.5,1744.8,957.9C4783.4,4618.3,5662.2,4605.6,6009.6,4549.4z"/><path  fill="#28497E"  d="M5473.1,3392.1c-94.5-35.8-153.3-120.1-153.3-214.6c0-227.4-51.1-227.4-390.8-2.6c-143.1,97.1-273.3,183.9-291.2,194.1c-20.4,10.2-79.2-51.1-166-178.8c-168.6-247.8-296.3-393.4-344.9-393.4c-20.4,0-53.6,40.9-71.5,89.4c-56.2,127.7-135.4,191.6-242.7,191.6c-107.3,0-191.6-51.1-242.7-153.3c-97.1-186.5-2.6-334.6,224.8-357.6c120.1-10.2,132.8-17.9,127.7-71.5c-5.1-30.7-92-183.9-196.7-342.3l-191.6-283.5l158.4-112.4c229.9-163.5,439.4-288.7,485.4-288.7c43.4,0,69,74.1,69,222.3c0,86.9,15.3,117.5,79.2,171.1c43.4,35.8,94.5,66.4,117.5,66.4c79.2,0,214.6-86.9,252.9-158.4c35.8-66.4,33.2-81.7-7.7-168.6c-38.3-76.6-71.5-104.7-178.8-143.1c-74.1-25.5-135.4-56.2-135.4-66.4c0-56.2,153.3-189,406.2-350l281-181.4l181.4,275.9l181.4,275.9l61.3-61.3c61.3-58.7,76.6-63.9,227.4-71.5c40.9,0,84.3-23,99.6-46c23-33.2-10.2-99.6-168.6-337.2c-107.3-163.5-196.7-306.5-196.7-319.3c0-28.1,582.4-411.3,625.9-411.3c40.9,0,74.1,130.3,66.4,242.7c-7.7,115,94.5,217.1,217.1,217.1c71.5,0,112.4-20.4,178.8-86.9c48.5-48.5,86.9-104.7,86.9-127.7c0-99.6-74.1-183.9-214.6-242.7l-143-58.8l38.3-69c30.7-61.3,518.6-408.7,628.4-449.6c23-7.7,99.6,84.3,217.1,263.1c232.5,350,240.1,375.5,137.9,411.3c-43.4,12.8-112.4,20.4-150.7,12.8c-51.1-10.2-89.4,2.6-145.6,48.5c-161,138-46,426.6,168.6,426.6c107.3,0,171.2-56.2,240.1-222.2c46-102.2,51.1-107.3,107.3-76.6c58.8,30.7,495.6,546.7,495.6,585c0,10.2-120.1,99.6-268.2,199.2c-145.6,97.1-278.5,201.8-293.8,229.9c-23,43.4-12.8,56.2,99.6,115c201.8,99.6,242.7,189,166,352.5c-81.7,171.2-278.5,222.2-416.4,104.7c-63.9-51.1-79.2-86.9-79.2-163.5c0-127.7-20.4-178.8-74.1-178.8c-23,0-171.1,86.9-327,191.6c-158.4,104.7-296.3,191.6-306.5,191.6c-12.8,0-86.9-102.2-168.6-224.8c-79.2-125.2-181.4-260.6-224.8-301.4l-79.2-74.1l-40.9,53.6c-23,30.6-63.9,92-86.9,135.4c-25.5,46-79.2,94.5-120.1,112.4l-76.6,33.2l201.8,252.9c112.4,140.5,204.4,260.6,204.4,268.2c-2.5,7.7-94.5,76.6-209.5,153.3c-235,158.4-378.1,275.9-378.1,309.1c0,12.8,63.9,53.7,140.5,89.4c173.7,84.3,219.7,183.9,150.7,329.5c-23,51.1-69,109.8-99.6,130.3C5651.9,3389.6,5526.8,3412.6,5473.1,3392.1z M5626.4,3154.6c20.4-38.3,15.3-53.6-23-76.6c-68.9-35.8-71.5-33.2-86.8,30.7C5488.4,3210.8,5575.3,3249.1,5626.4,3154.6z M4860,2975.8c199.2-135.4,293.8-178.8,375.5-178.8c58.8,0,81.7-17.9,122.6-107.3c38.3-79.2,104.7-143,263.1-252.9l209.5-145.6l-92-109.9c-51.1-61.3-94.5-115-99.6-120.1c-2.5-2.6-46,33.2-99.6,81.7c-171.1,163.5-393.4,155.8-567.1-17.9c-56.2-58.8-109.8-122.6-117.5-143.1c-7.7-30.7-30.6-23-99.6,28.1c-160.9,122.6-370.4,140.5-531.3,43.4c-30.7-20.4-89.4-89.4-127.7-155.8l-69-120.1l-102.2,66.4c-53.7,35.8-104.7,69-107.3,74.1c-5.1,2.6,43.4,81.7,107.3,171.1c143.1,199.3,227.3,385.7,206.9,449.6c-12.8,38.3,2.6,53.6,61.3,66.4c92,20.4,227.3,148.2,360.2,347.4c66.4,94.5,117.5,145.6,135.4,135.4C4706.8,3077.9,4783.4,3026.9,4860,2975.8z M3863.8,2819.9c25.5-43.4,17.9-48.5-51.1-48.5c-79.2,0-99.6,43.4-46,97.1C3799.9,2901.7,3828,2888.9,3863.8,2819.9z M5404.1,1999.9c30.7-33.2,71.5-104.7,92-160.9c30.6-94.5,28.1-112.4-23-199.2c-30.7-51.1-69-86.9-84.3-76.6c-12.8,7.7-66.4,12.8-117.5,12.8c-132.8-5.1-176.3,15.3-222.2,102.2C4931.6,1905.4,5230.4,2176.2,5404.1,1999.9z M7511.6,1872.2c43.4-43.4,38.3-58.8-33.2-92c-61.3-28.1-63.9-25.5-63.9,46C7414.6,1905.4,7458,1925.8,7511.6,1872.2z M6998.2,1535c46-23,112.4-40.9,148.2-40.9c48.5,0,71.5-17.9,92-69c38.3-102.2,89.4-150.7,298.9-293.8l186.5-125.2l-51.1-69c-28.1-38.3-74.1-97.1-99.6-127.7l-46-61.3l-40.9,63.9c-145.6,219.7-564.6,176.3-697.4-69c-56.2-104.7-69-109.9-117.5-48.5c-53.6,61.3-227.3,135.4-329.5,135.4c-137.9,0-281-97.1-352.5-235l-61.3-120.1l-112.4,76.6l-109.9,74.1l150.7,232.5c92,140.5,160.9,273.3,168.6,334.6c12.8,79.2,33.2,104.7,97.1,132.8c89.4,35.8,214.6,168.6,347.4,362.7l89.4,130.3l178.8-120.1C6834.7,1632.1,6952.2,1560.6,6998.2,1535z M5751.6,1547.8c23-38.3,17.9-51.1-30.7-63.9c-74.1-17.9-112.4,23-69,74.1C5695.4,1609.1,5720.9,1606.5,5751.6,1547.8z M5084.8,1392c58.8,0,56.2-53.6-10.2-150.7c-38.3-61.3-79.2-97.1-97.1-86.9c-15.3,7.7-76.6,48.5-137.9,89.4l-107.3,74.1l79.2,99.6l81.7,99.6l81.7-61.3C5018.4,1420.1,5069.5,1392,5084.8,1392z M6972.6,109.6l81.8-35.7l-69-107.3c-38.3-58.8-76.6-107.3-86.9-107.3c-10.2,0-76.6,35.8-145.6,79.2l-127.7,76.6l81.7,109.8c79.2,107.3,81.8,109.8,132.8,63.9C6867.9,163.2,6926.7,127.5,6972.6,109.6z"/></g></g>
</svg>