<?xml version="1.0" encoding="UTF-8"?>
<svg width="116px" height="39px" viewBox="0 0 116 39" version="1.1" xmlns="http://www.w3.org/2000/svg" xmlns:xlink="http://www.w3.org/1999/xlink">
    <title>logo-cybri</title>
    <desc>Created with Sketch.</desc>
    <defs></defs>
    <g id="Page-1" stroke="none" stroke-width="1" fill="none" fill-rule="evenodd">
        <g id="logo-cybri" fill="#4c6fd2">
            <path d="M18.39,12.74 L19.83,11 C17.82,9.11 15.03,7.94 12.15,7.94 C6.06,7.94 1.2,12.59 1.2,18.47 C1.2,24.41 6,29.09 12.06,29.09 C14.97,29.09 17.79,27.86 19.86,25.91 L18.39,24.32 C16.74,25.88 14.49,26.84 12.18,26.84 C7.44,26.84 3.63,23.09 3.63,18.47 C3.63,13.82 7.44,10.13 12.18,10.13 C14.49,10.13 16.77,11.12 18.39,12.74 L18.39,12.74 Z M45.6,8 L43.14,8 L36.42,19.01 L29.61,8 L27.12,8 L35.25,21.77 L35.25,29 L37.62,29 L37.62,21.71 L45.6,8 Z M63.78,8 L54.93,8 L54.93,29 L63.93,29 C68.67,29 71.49,26.87 71.49,23.3 C71.49,20.42 69.72,18.44 66.69,17.99 C69.15,17.48 70.56,15.71 70.56,13.25 C70.56,9.95 68.01,8 63.78,8 L63.78,8 Z M63.66,17.09 L57.33,17.09 L57.33,10.22 L63.66,10.22 C66.48,10.22 68.13,11.45 68.13,13.61 C68.13,15.83 66.48,17.09 63.66,17.09 L63.66,17.09 Z M63.66,26.78 L57.33,26.78 L57.33,19.31 L63.66,19.31 C67.08,19.31 69.06,20.66 69.06,23 C69.06,25.43 67.08,26.78 63.66,26.78 L63.66,26.78 Z M98.88,29 L93.93,21.83 C96.96,20.87 98.67,18.5 98.67,15.05 C98.67,10.58 95.64,8 90.39,8 L82.41,8 L82.41,29 L84.81,29 L84.81,22.34 L90.39,22.34 C90.87,22.34 91.32,22.31 91.74,22.28 L96.15,29 L98.88,29 Z M84.81,20.12 L84.81,10.22 L90.39,10.22 C94.2,10.22 96.36,11.9 96.36,15.11 C96.36,18.41 94.2,20.12 90.39,20.12 L84.81,20.12 Z M110.1,8 L110.1,29 L112.5,29 L112.5,8 L110.1,8 Z" id="CYBRI"></path>
        </g>
    </g>
</svg>