<?xml version="1.0" encoding="UTF-8"?>
<svg width="32px" height="32px" viewBox="0 0 32 32" version="1.1" xmlns="http://www.w3.org/2000/svg" xmlns:xlink="http://www.w3.org/1999/xlink">
    <!-- Generator: Sketch 40.3 (33839) - http://www.bohemiancoding.com/sketch -->
    <title>attach</title>
    <desc>Created with Sketch.</desc>
    <defs></defs>
    <g id="Icons" stroke="none" stroke-width="1" fill="none" fill-rule="evenodd">
        <g id="attach" fill="#6ED984">
            <g id="attachment-clip" transform="translate(17.202796, 15.202796) rotate(-45.000000) translate(-17.202796, -15.202796) translate(3.202796, 7.702796)">
                <g id="Capa_1" transform="translate(0.000000, 0.000000)">
                    <g id="attachment">
                        <path d="M7.44847595,14.9039071 C3.38567089,14.9039071 1.13686838e-12,11.5256881 1.13686838e-12,7.47182541 C1.13686838e-12,3.41796269 3.38567089,0.0397437522 7.44847595,0.0397437522 L21.6682937,0.0397437522 C24.6476841,0.0397437522 27.0853671,2.47206138 27.0853671,5.44489405 C27.0853671,8.41772671 24.6476841,10.8500443 21.6682937,10.8500443 L10.1570127,10.8500443 C8.26103697,10.8500443 6.77134178,9.36362801 6.77134178,7.47182541 C6.77134178,5.5800228 8.26103697,4.09360647 10.1570127,4.09360647 L20.3140253,4.09360647 L20.3140253,6.12053783 L10.1570127,6.12053783 C9.34445165,6.12053783 8.80274431,6.66105286 8.80274431,7.47182541 C8.80274431,8.28259795 9.34445165,8.82311298 10.1570127,8.82311298 L21.6682937,8.82311298 C23.5642694,8.82311298 25.0539646,7.33669665 25.0539646,5.44489405 C25.0539646,3.55309144 23.5642694,2.06667511 21.6682937,2.06667511 L7.44847595,2.06667511 C4.46908557,2.06667511 2.03140253,4.49899275 2.03140253,7.47182541 C2.03140253,10.4446581 4.46908557,12.8769757 7.44847595,12.8769757 L20.3140253,12.8769757 L20.3140253,14.9039071 L7.44847595,14.9039071 L7.44847595,14.9039071 Z" id="Shape"></path>
                    </g>
                </g>
            </g>
        </g>
    </g>
</svg>