<?xml version="1.0" encoding="UTF-8"?>
<svg width="100px" height="100px" viewBox="0 0 100 100" version="1.1" xmlns="http://www.w3.org/2000/svg" xmlns:xlink="http://www.w3.org/1999/xlink">
    <!-- Generator: Sketch 40.3 (33839) - http://www.bohemiancoding.com/sketch -->
    <title>education</title>
    <desc>Created with Sketch.</desc>
    <defs></defs>
    <g id="Page-1" stroke="none" stroke-width="1" fill="none" fill-rule="evenodd">
        <g id="education" fill="#28497D">
            <g id="mortarboard" transform="translate(15.000000, 25.000000)">
                <g id="Group">
                    <path d="M45.6729532,54.1017934 C45.0934016,53.9546881 44.5063743,54.3093372 44.3625634,54.8878752 L43.281384,59.2127193 C43.1354191,59.7932846 43.4889279,60.3792982 44.0684795,60.5242495 C44.1560331,60.5469298 44.2447271,60.5566862 44.3312671,60.5566862 C44.8156628,60.5566862 45.2557115,60.2290253 45.3789961,59.7381676 L46.4601754,55.4133236 C46.605,54.8337719 46.2525049,54.2467446 45.6729532,54.1017934 L45.6729532,54.1017934 Z" id="Shape"></path>
                    <path d="M32.4366472,32.4450097 C32.5771637,32.4450097 32.717807,32.4180214 32.8497076,32.3629045 L44.7431871,27.4411501 C45.2946101,27.2129532 45.5562573,26.5804386 45.3281871,26.0290156 C45.0999903,25.4764522 44.4653216,25.2169591 43.915039,25.4430019 L32.4366472,30.1938304 L2.16248538,17.6668226 L2.16248538,17.3078655 C2.16248538,16.7110819 1.67808967,16.2266862 1.08130604,16.2266862 C0.484522417,16.2266862 0,16.7110819 0,17.3078655 L0,18.3890448 C0,18.8269396 0.26380117,19.2216277 0.668245614,19.3881189 L32.0237135,32.3627778 C32.1554873,32.4178947 32.2961306,32.4450097 32.4366472,32.4450097 L32.4366472,32.4450097 Z" id="Shape"></path>
                    <path d="M45.2989181,43.5221248 C45.035117,42.9869201 44.388538,42.7663255 43.8511793,43.0312671 C41.7979142,44.0465595 38.3682456,45.2272027 33.5179532,45.3883723 L33.5179532,35.6886745 C33.5179532,35.0918908 33.0335575,34.6074951 32.4367739,34.6074951 C31.8399903,34.6074951 31.3555945,35.0918908 31.3555945,35.6886745 L31.3555945,45.378616 C17.930117,44.9504776 13.5976706,36.8174951 12.9747856,35.4637719 L12.9747856,28.1201657 C12.9747856,27.5233821 12.4903899,27.0389864 11.8936062,27.0389864 C11.2968226,27.0389864 10.8124269,27.5233821 10.8124269,28.1201657 L10.8124269,35.6886745 C10.8124269,35.8260234 10.8384016,35.962232 10.8892105,36.0908382 C11.0773684,36.5590156 15.6790643,47.5820273 32.4369006,47.5820273 C38.2938694,47.5820273 42.3982456,46.1612768 44.8093275,44.9697368 C45.3452924,44.704922 45.5648733,44.0573294 45.2989181,43.5221248 L45.2989181,43.5221248 Z" id="Shape"></path>
                    <path d="M48.6549708,55.1506628 C48.0570468,55.1506628 47.5737914,55.6350585 47.5737914,56.2318421 L47.5737914,59.4755068 C47.5737914,60.0722904 48.0570468,60.5566862 48.6549708,60.5566862 C49.2528947,60.5566862 49.7361501,60.0722904 49.7361501,59.4755068 L49.7361501,56.2318421 C49.7361501,55.6350585 49.2528947,55.1506628 48.6549708,55.1506628 L48.6549708,55.1506628 Z" id="Shape"></path>
                    <path d="M63.792115,16.2266862 C63.194191,16.2266862 62.7109357,16.7110819 62.7109357,17.3078655 L62.7109357,17.6646686 L49.7362768,23.0048051 L49.7362768,21.0510039 L64.2051754,15.0631481 C64.6094932,14.8966569 64.8734211,14.5019688 64.8734211,14.0640741 C64.8734211,13.6261793 64.6096199,13.2326316 64.2063158,13.065 L32.8497076,0.0904678363 C32.5847661,-0.0187524366 32.2885283,-0.0187524366 32.0237135,0.0904678363 L0.668245614,13.0651267 C0.26380117,13.2327583 0,13.626306 0,14.0642008 C0,14.5020955 0.26380117,14.8967836 0.668245614,15.0632749 L32.0237135,28.0379337 C32.155614,28.0930507 32.2961306,28.1201657 32.4367739,28.1201657 C32.5774172,28.1201657 32.7179337,28.0931774 32.8498343,28.0379337 L44.1875828,23.3465302 C44.7401462,23.1194737 45.0017934,22.4869591 44.7735965,21.9343957 C44.5453996,21.3829727 43.912885,21.1223392 43.361462,21.3493957 L32.4366472,25.8689864 L3.90861598,14.0642008 L32.4366472,2.2594152 L60.9646784,14.0642008 L48.5511988,19.2011014 L36.6610136,14.7615887 C36.7237329,14.5366862 36.7616179,14.3053216 36.7616179,14.0642008 C36.7616179,12.2455945 34.8619201,10.8205361 32.4367739,10.8205361 C30.0116277,10.8205361 28.1119298,12.2455945 28.1119298,14.0642008 C28.1119298,15.882807 30.0116277,17.3078655 32.4367739,17.3078655 C33.5190936,17.3078655 34.4845906,17.0126413 35.2349415,16.5369883 L47.5737914,21.1441326 L47.5737914,24.6083918 L47.5737914,24.6095322 L47.5737914,47.7812086 C46.3185185,48.2298733 45.411306,49.4181189 45.411306,50.8259454 C45.411306,52.614269 46.8666472,54.0696101 48.6549708,54.0696101 C50.4432943,54.0696101 51.8986355,52.614269 51.8986355,50.8259454 C51.8986355,49.4182456 50.9915497,48.23 49.7361501,47.7812086 L49.7361501,41.6442203 C52.8403119,39.3011793 53.9529142,36.1807992 54.0015692,36.0424366 C54.0404678,35.9289084 54.0609942,35.8089181 54.0609942,35.6889279 L54.0609942,28.1204191 C54.0609942,27.5236355 53.5777388,27.0392398 52.9798148,27.0392398 C52.3818908,27.0392398 51.8986355,27.5236355 51.8986355,28.1204191 L51.8986355,35.4889864 C51.7116179,35.9474074 51.0617446,37.3605556 49.7361501,38.7553314 L49.7361501,25.343538 L64.2040351,19.3892593 C64.6094932,19.222768 64.8732943,18.8270663 64.8732943,18.3891715 L64.8732943,17.3079922 C64.8732943,16.7110819 64.390039,16.2266862 63.792115,16.2266862 L63.792115,16.2266862 Z M32.4366472,15.1453801 C31.116501,15.1453801 30.2741618,14.5052632 30.2741618,14.0642008 C30.2741618,13.6230117 31.1163743,12.9830214 32.4366472,12.9830214 C33.7569201,12.9830214 34.5991326,13.6231384 34.5991326,14.0642008 C34.5991326,14.5053899 33.7567934,15.1453801 32.4366472,15.1453801 L32.4366472,15.1453801 Z M48.6549708,51.9069981 C48.0581871,51.9069981 47.5737914,51.4215887 47.5737914,50.8258187 C47.5737914,50.2300487 48.0581871,49.7446394 48.6549708,49.7446394 C49.2517544,49.7446394 49.7361501,50.2300487 49.7361501,50.8258187 C49.7361501,51.421462 49.2517544,51.9069981 48.6549708,51.9069981 L48.6549708,51.9069981 Z" id="Shape"></path>
                    <path d="M52.9473782,54.8878752 C52.8025536,54.3094639 52.2142593,53.9558285 51.6369883,54.1017934 C51.0574366,54.2466179 50.7049415,54.8337719 50.8498928,55.4133236 L51.9310721,59.7381676 C52.0543567,60.2290253 52.4944055,60.5566862 52.9788012,60.5566862 C53.0653411,60.5566862 53.1539084,60.5469298 53.2415887,60.5242495 C53.8211404,60.379425 54.1736355,59.7932846 54.0286842,59.2127193 L52.9473782,54.8878752 L52.9473782,54.8878752 Z" id="Shape"></path>
                </g>
            </g>
        </g>
    </g>
</svg>