<?xml version="1.0" encoding="UTF-8"?>
<svg width="100px" height="100px" viewBox="0 0 100 100" version="1.1" xmlns="http://www.w3.org/2000/svg" xmlns:xlink="http://www.w3.org/1999/xlink">
    <!-- Generator: Sketch 40.3 (33839) - http://www.bohemiancoding.com/sketch -->
    <title>fintech</title>
    <desc>Created with Sketch.</desc>
    <defs></defs>
    <g id="Page-1" stroke="none" stroke-width="1" fill="none" fill-rule="evenodd">
        <g id="fintech" fill="#28497D">
            <g id="credit-card" transform="translate(20.000000, 29.000000)">
                <g id="Layer_1">
                    <path d="M56.9988281,15.1241447 L47.1064453,15.1241447 L47.1064453,3.04851316 C47.1064453,1.37617105 45.7600781,0.01575 44.1052734,0.01575 L3.00117187,0.01575 C1.34636719,0.0155131579 0,1.37617105 0,3.04839474 L0,26.8430921 C0,28.5154342 1.34636719,29.8758553 3.00117187,29.8758553 L12.8935547,29.8758553 L12.8935547,41.9513684 C12.8935547,43.6237105 14.2399219,44.9841316 15.8947266,44.9841316 L56.9988281,44.9841316 C58.65375,44.9841316 60,43.6235921 60,41.9513684 L60,18.1569079 C60,16.4845658 58.6536328,15.1241447 56.9988281,15.1241447 L56.9988281,15.1241447 Z M3.00117187,27.4604211 C2.664375,27.4604211 2.39039062,27.1834342 2.39039062,26.8430921 L2.39039062,3.04839474 C2.39039062,2.70805263 2.664375,2.43118421 3.00117187,2.43118421 L44.1051562,2.43118421 C44.4419531,2.43118421 44.7159375,2.70805263 44.7159375,3.04839474 L44.7159375,26.8430921 C44.7159375,27.1833158 44.4419531,27.4603026 44.1051562,27.4603026 L3.00117187,27.4603026 L3.00117187,27.4604211 Z M57.6096094,41.9516053 C57.6096094,42.2919474 57.335625,42.5688158 56.9988281,42.5688158 L15.8947266,42.5688158 C15.5579297,42.5688158 15.2839453,42.2919474 15.2839453,41.9516053 L15.2839453,40.4103553 L57.6094922,40.4103553 L57.6094922,41.9516053 L57.6096094,41.9516053 Z M57.6096094,37.9946842 L15.2839453,37.9946842 L15.2839453,34.3115526 L57.6094922,34.3115526 L57.6094922,37.9946842 L57.6096094,37.9946842 Z M57.6096094,31.8958816 L15.2839453,31.8958816 L15.2839453,29.8759737 L44.1052734,29.8759737 C45.7601953,29.8759737 47.1064453,28.5154342 47.1064453,26.8432105 L47.1064453,17.5398158 L56.9988281,17.5398158 C57.335625,17.5398158 57.6096094,17.8166842 57.6096094,18.1570263 L57.6096094,31.8958816 L57.6096094,31.8958816 Z" id="Shape"></path>
                    <path d="M37.8183984,4.86675 C36.5415234,4.86675 35.3915625,5.42569737 34.5950391,6.31409211 C33.7985156,5.42569737 32.6485547,4.86675 31.3716797,4.86675 C28.9730859,4.86675 27.0216797,6.83869737 27.0216797,9.26265789 C27.0216797,11.6866184 28.9730859,13.6585658 31.3716797,13.6585658 C32.6485547,13.6585658 33.7985156,13.0996184 34.5950391,12.2112237 C35.3915625,13.0996184 36.5415234,13.6585658 37.8183984,13.6585658 C40.2169922,13.6585658 42.1685156,11.6866184 42.1685156,9.26265789 C42.1685156,6.83869737 40.2171094,4.86675 37.8183984,4.86675 L37.8183984,4.86675 Z M31.3716797,11.2431316 C30.2912109,11.2431316 29.4120703,10.3548553 29.4120703,9.26277632 C29.4120703,8.17081579 30.2912109,7.28242105 31.3716797,7.28242105 C32.4522656,7.28242105 33.3314062,8.17081579 33.3314062,9.26277632 C33.3312891,10.3547368 32.4522656,11.2431316 31.3716797,11.2431316 L31.3716797,11.2431316 Z M37.8183984,11.2431316 C36.7379297,11.2431316 35.8587891,10.3548553 35.8587891,9.26277632 C35.8587891,8.17081579 36.7379297,7.28242105 37.8183984,7.28242105 C38.8989844,7.28242105 39.778125,8.17081579 39.778125,9.26277632 C39.778125,10.3547368 38.8989844,11.2431316 37.8183984,11.2431316 L37.8183984,11.2431316 Z" id="Shape"></path>
                    <path d="M11.8996875,20.2526053 L6.133125,20.2526053 C5.47300781,20.2526053 4.93792969,20.7934342 4.93792969,21.4603816 C4.93792969,22.1273289 5.47300781,22.6681579 6.133125,22.6681579 L11.8996875,22.6681579 C12.5598047,22.6681579 13.0948828,22.1273289 13.0948828,21.4603816 C13.0948828,20.7934342 12.5598047,20.2526053 11.8996875,20.2526053 L11.8996875,20.2526053 Z" id="Shape"></path>
                    <path d="M21.6365625,20.2526053 L15.8701172,20.2526053 C15.21,20.2526053 14.6749219,20.7934342 14.6749219,21.4603816 C14.6749219,22.1273289 15.21,22.6681579 15.8701172,22.6681579 L21.6366797,22.6681579 C22.2967969,22.6681579 22.831875,22.1273289 22.831875,21.4603816 C22.831875,20.7934342 22.2966797,20.2526053 21.6365625,20.2526053 L21.6365625,20.2526053 Z" id="Shape"></path>
                    <path d="M31.3735547,20.2526053 L25.6069922,20.2526053 C24.946875,20.2526053 24.4117969,20.7934342 24.4117969,21.4603816 C24.4117969,22.1273289 24.946875,22.6681579 25.6069922,22.6681579 L31.3735547,22.6681579 C32.0336719,22.6681579 32.56875,22.1273289 32.56875,21.4603816 C32.56875,20.7934342 32.0336719,20.2526053 31.3735547,20.2526053 L31.3735547,20.2526053 Z" id="Shape"></path>
                    <path d="M41.1104297,20.2526053 L35.3438672,20.2526053 C34.68375,20.2526053 34.1486719,20.7934342 34.1486719,21.4603816 C34.1486719,22.1273289 34.68375,22.6681579 35.3438672,22.6681579 L41.1104297,22.6681579 C41.7705469,22.6681579 42.305625,22.1273289 42.305625,21.4603816 C42.305625,20.7934342 41.7705469,20.2526053 41.1104297,20.2526053 L41.1104297,20.2526053 Z" id="Shape"></path>
                    <path d="M10.1452734,5.28288158 L7.60769531,5.28288158 C6.286875,5.28288158 5.21226562,6.36868421 5.21226562,7.70340789 L5.21226562,10.2676974 C5.21226562,11.6024211 6.286875,12.6882237 7.60769531,12.6882237 L10.1452734,12.6882237 C11.4660937,12.6882237 12.5407031,11.6024211 12.5407031,10.2676974 L12.5407031,7.70340789 C12.5407031,6.36868421 11.4660937,5.28288158 10.1452734,5.28288158 L10.1452734,5.28288158 Z M10.1475,10.2725526 C10.1475,10.2725526 10.1467969,10.2726711 10.1451562,10.2726711 L7.60253906,10.2676974 L7.60769531,7.69843421 L10.1501953,7.70340789 L10.1475,10.2725526 L10.1475,10.2725526 Z" id="Shape"></path>
                </g>
            </g>
        </g>
    </g>
</svg>