<?xml version="1.0" encoding="UTF-8"?>
<svg width="100px" height="100px" viewBox="0 0 100 100" version="1.1" xmlns="http://www.w3.org/2000/svg" xmlns:xlink="http://www.w3.org/1999/xlink">
    <!-- Generator: Sketch 40.3 (33839) - http://www.bohemiancoding.com/sketch -->
    <title>halfcare</title>
    <desc>Created with Sketch.</desc>
    <defs></defs>
    <g id="Page-1" stroke="none" stroke-width="1" fill="none" fill-rule="evenodd">
        <g id="halfcare" fill="#28497D">
            <g id="stethoscope" transform="translate(25.000000, 23.000000)">
                <g id="Capa_1">
                    <g id="Group">
                        <path d="M41.5,31 C37.428,31 34.064,34.06 33.569,38 L22.5,38 L22.5,31.875 C23.54,31.616 24.439,30.957 25.006,30.002 L37.926,8.151 C38.682,6.876 38.695,5.345 37.961,4.057 C37.227,2.769 35.904,2 34.421,2 L32.149,2 C31.585,0.822 30.391,0 29,0 C27.404,0 23.5,1.227 23.5,3.5 C23.5,5.773 27.404,7 29,7 C30.758,7 32.204,5.692 32.449,4 L34.42,4 C35.175,4 35.849,4.392 36.222,5.048 C36.596,5.703 36.589,6.483 36.204,7.133 L23.284,28.984 C22.907,29.62 22.24,30 21.5,30 C20.76,30 20.093,29.62 19.709,28.974 L6.428,7.132 C6.043,6.483 6.036,5.703 6.41,5.048 C6.784,4.392 7.458,4 8.212,4 L10.55,4 C10.796,5.692 12.242,7 14,7 C15.596,7 19.5,5.773 19.5,3.5 C19.5,1.227 15.596,0 14,0 C12.609,0 11.415,0.822 10.851,2 L8.212,2 C6.729,2 5.406,2.77 4.672,4.058 C3.938,5.346 3.951,6.876 4.713,8.161 L17.995,30.003 C18.561,30.958 19.46,31.616 20.5,31.875 L20.5,38 L11.5,38 C5.435,38 0.5,42.935 0.5,49 C0.5,55.065 5.435,60 11.5,60 C17.565,60 22.5,55.065 22.5,49 L22.5,40 L33.569,40 C34.064,43.94 37.428,47 41.5,47 C45.911,47 49.5,43.411 49.5,39 C49.5,34.589 45.911,31 41.5,31 L41.5,31 Z M29,5 C27.766,5 25.642,4.011 25.502,3.5 C25.642,2.989 27.766,2 29,2 C29.827,2 30.5,2.673 30.5,3.5 C30.5,4.327 29.827,5 29,5 L29,5 Z M14,2 C15.234,2 17.358,2.989 17.498,3.5 C17.358,4.011 15.234,5 14,5 C13.173,5 12.5,4.327 12.5,3.5 C12.5,2.673 13.173,2 14,2 L14,2 Z M20.5,49 C20.5,53.963 16.462,58 11.5,58 C6.538,58 2.5,53.963 2.5,49 C2.5,44.037 6.538,40 11.5,40 L20.5,40 L20.5,49 L20.5,49 Z M41.5,45 C38.191,45 35.5,42.309 35.5,39 C35.5,35.691 38.191,33 41.5,33 C44.809,33 47.5,35.691 47.5,39 C47.5,42.309 44.809,45 41.5,45 L41.5,45 Z" id="Shape"></path>
                        <path d="M41.5,35 C39.294,35 37.5,36.794 37.5,39 C37.5,41.206 39.294,43 41.5,43 C43.706,43 45.5,41.206 45.5,39 C45.5,36.794 43.706,35 41.5,35 L41.5,35 Z M41.5,41 C40.397,41 39.5,40.103 39.5,39 C39.5,37.897 40.397,37 41.5,37 C42.603,37 43.5,37.897 43.5,39 C43.5,40.103 42.603,41 41.5,41 L41.5,41 Z" id="Shape"></path>
                    </g>
                </g>
            </g>
        </g>
    </g>
</svg>