<?xml version="1.0" encoding="UTF-8"?>
<svg width="150px" height="40px" viewBox="0 0 150 40" version="1.1" xmlns="http://www.w3.org/2000/svg" xmlns:xlink="http://www.w3.org/1999/xlink">
    <!-- Generator: Sketch 40.3 (33839) - http://www.bohemiancoding.com/sketch -->
    <title>insurance</title>
    <desc>Created with Sketch.</desc>
    <defs></defs>
    <g id="Page-1" stroke="none" stroke-width="1" fill="none" fill-rule="evenodd">
        <g id="insurance">
            <rect id="Rectangle-5" fill="#71DA87" x="0" y="0" width="150" height="40" rx="3"></rect>
            <path d="M48.288,15.2 L48.288,25 L49.94,25 L49.94,15.2 L48.288,15.2 Z M52.516,15.2 L52.516,25 L54.168,25 L54.168,17.972 L59.39,25 L61.014,25 L61.014,15.2 L59.39,15.2 L59.39,22.242 L54.14,15.2 L52.516,15.2 Z M69.568,17.594 L70.254,16.138 C69.344,15.536 68.098,15.13 66.824,15.13 C64.696,15.13 63.254,16.18 63.254,17.86 C63.254,21.346 68.546,20.128 68.546,22.312 C68.546,23.068 67.86,23.502 66.712,23.502 C65.662,23.502 64.402,22.998 63.394,22.074 L62.68,23.502 C63.688,24.426 65.144,25.056 66.684,25.056 C68.84,25.056 70.38,23.978 70.38,22.228 C70.394,18.7 65.102,19.848 65.102,17.706 C65.102,17.048 65.732,16.684 66.698,16.684 C67.44,16.684 68.504,16.95 69.568,17.594 L69.568,17.594 Z M73.768,20.94 L73.768,15.2 L72.116,15.2 L72.116,20.94 C72.116,23.502 73.74,25.07 76.386,25.07 C79.032,25.07 80.642,23.502 80.642,20.94 L80.642,15.2 L78.99,15.2 L78.99,20.94 C78.99,22.606 77.996,23.586 76.4,23.586 C74.79,23.586 73.768,22.592 73.768,20.94 L73.768,20.94 Z M91.1,25 L88.902,21.724 C90.204,21.22 90.932,20.114 90.932,18.546 C90.932,16.418 89.49,15.2 86.984,15.2 L83.008,15.2 L83.008,25 L84.66,25 L84.66,22.046 L86.984,22.046 C87.138,22.046 87.292,22.046 87.432,22.032 L89.224,25 L91.1,25 Z M84.66,20.562 L84.66,16.684 L86.984,16.684 C88.496,16.684 89.364,17.3 89.364,18.588 C89.364,19.918 88.496,20.562 86.984,20.562 L84.66,20.562 Z M100.396,25 L102.16,25 L97.876,15.2 L96.182,15.2 L91.856,25 L93.578,25 L94.516,22.788 L99.458,22.788 L100.396,25 Z M95.132,21.318 L96.98,16.964 L98.828,21.318 L95.132,21.318 Z M103.462,15.2 L103.462,25 L105.114,25 L105.114,17.972 L110.336,25 L111.96,25 L111.96,15.2 L110.336,15.2 L110.336,22.242 L105.086,15.2 L103.462,15.2 Z M121.648,17.874 L122.614,16.67 C121.662,15.732 120.276,15.158 118.89,15.158 C115.992,15.158 113.738,17.3 113.738,20.086 C113.738,22.9 115.964,25.07 118.834,25.07 C120.22,25.07 121.634,24.44 122.628,23.46 L121.648,22.368 C120.906,23.082 119.898,23.53 118.918,23.53 C116.958,23.53 115.418,22.004 115.418,20.072 C115.418,18.14 116.958,16.628 118.918,16.628 C119.912,16.628 120.934,17.104 121.648,17.874 L121.648,17.874 Z M124.308,15.2 L124.308,25 L131.476,25 L131.476,23.516 L125.96,23.516 L125.96,20.814 L130.748,20.814 L130.748,19.33 L125.96,19.33 L125.96,16.684 L131.308,16.684 L131.308,15.2 L124.308,15.2 Z" id="INSURANCE" fill="#FFFFFF"></path>
            <g transform="translate(14.000000, 7.000000)" id="Layer_1" fill="#FFFFFF">
                <g>
                    <g id="Group">
                        <path d="M22.9034609,4.28572266 C22.8044348,4.10526562 22.6164,3.99336328 22.4121913,3.99336328 L21.8776696,3.99336328 C19.6533913,3.99336328 17.7194609,2.5496543 17.0653043,0.400886719 C16.9927304,0.162580078 16.7749565,0 16.5283304,0 L7.47172174,0 C7.22509565,0 7.00726957,0.162580078 6.93474783,0.400886719 C6.2805913,2.5496543 4.3466087,3.99336328 2.12233043,3.99336328 L1.58786087,3.99336328 C1.38370435,3.99336328 1.19561739,4.10531836 1.0965913,4.28572266 C-2.68069565,11.1687715 4.5885913,19.0276172 8.9318087,23.7230859 C10.0816174,24.9661934 11.0746435,26.039707 11.5298087,26.7430254 C11.6335826,26.9033906 11.8103478,27 11.9999478,27 C12.1895478,27 12.366313,26.9033379 12.470087,26.7430254 C12.9252522,26.039707 13.9182261,24.9662461 15.0680348,23.7231387 C19.4114087,19.0276172 26.6807478,11.1687187 22.9034609,4.28572266 L22.9034609,4.28572266 Z M20.9983826,14.3732285 C19.1819478,17.6128066 16.3298609,20.6961855 14.2473391,22.9475742 C13.3242783,23.9454668 12.5462609,24.7866328 12,25.4758711 C11.453687,24.7865801 10.6756696,23.9454668 9.75266087,22.9475742 C7.67013913,20.6961328 4.81805217,17.6127539 3.00161739,14.3732285 C0.983843478,10.7745293 0.630730435,7.74615234 1.92662609,5.12894531 L2.12238261,5.12894531 C3.44895652,5.12894531 4.71417391,4.70791406 5.78123478,3.91136133 C6.73533913,3.19913086 7.45210435,2.24564063 7.87205217,1.1356875 L16.128,1.1356875 C16.5479478,2.24569336 17.264713,3.19918359 18.2187652,3.91136133 C19.2858261,4.70791406 20.5510435,5.12894531 21.8776174,5.12894531 L22.0734783,5.12894531 C23.3693217,7.74615234 23.0162609,10.7745293 20.9983826,14.3732285 L20.9983826,14.3732285 Z" id="Shape"></path>
                        <path d="M20.9818957,6.21010547 C18.7093565,5.93182617 16.6796348,4.56684961 15.5524696,2.55893555 C15.452713,2.38116797 15.266087,2.27132227 15.0638087,2.27132227 L8.9361913,2.27132227 C8.73396522,2.27132227 8.5473913,2.3812207 8.44753043,2.55893555 C7.32041739,4.56684961 5.29069565,5.93177344 3.01810435,6.21010547 C2.79683478,6.23726367 2.61224348,6.39404297 2.54786087,6.60972656 C2.28902609,7.47652148 2.22641739,8.37901758 2.35643478,9.36889453 C2.53293913,10.7125664 3.07883478,12.2078496 3.9789913,13.8133477 C5.72973913,16.9356973 8.41533913,19.8390937 10.5732522,22.171957 C10.932,22.5598184 11.2708696,22.9262168 11.5861565,23.2730508 C11.6925391,23.3901211 11.8425913,23.4566719 11.9998435,23.4566719 C12.1570957,23.4566719 12.3071478,23.3900684 12.4135304,23.2730508 C12.7237043,22.9318066 13.0595478,22.5687305 13.415113,22.1842969 L13.426487,22.171957 C15.5844522,19.8390937 18.27,16.9356973 20.0208,13.8133477 C20.9209043,12.2080078 21.4668522,10.7126719 21.6433565,9.36889453 C21.7734261,8.37901758 21.7108174,7.47652148 21.4519304,6.60972656 C21.3877043,6.39399023 21.2032174,6.23721094 20.9818957,6.21010547 L20.9818957,6.21010547 Z M20.5297043,9.21939258 C20.3722435,10.4180977 19.8721043,11.7752695 19.0433739,13.2533613 C17.358313,16.2585879 14.7232174,19.1073516 12.6057913,21.3963926 L12.5944696,21.4087324 C12.3895304,21.6302695 12.191113,21.8448457 12,22.0525664 C11.8050261,21.8405742 11.6029043,21.6220957 11.3941043,21.3963926 C9.27678261,19.1073516 6.64163478,16.2585352 4.95667826,13.2533613 C4.12794783,11.7752695 3.6278087,10.4180449 3.47034783,9.21939258 C3.37914783,8.52546094 3.39991304,7.88800781 3.5342087,7.28182617 C4.69852174,7.08359766 5.81926957,6.63630469 6.79648696,5.97723047 C7.78309565,5.31182812 8.62794783,4.42778906 9.25575652,3.40695703 L14.7443478,3.40695703 C15.3721565,4.42778906 16.2169565,5.31182812 17.2035652,5.9772832 C18.1807304,6.63630469 19.3015304,7.08359766 20.4658435,7.28187891 C20.6001391,7.88800781 20.6209043,8.52551367 20.5297043,9.21939258 L20.5297043,9.21939258 Z" id="Shape"></path>
                        <path d="M13.9998783,10.306248 C14.1346435,10.0342969 14.2109217,9.72791016 14.2109217,9.40364648 L14.2109217,7.96278516 C14.2109217,6.85705078 13.320887,5.95750781 12.2269043,5.95750781 L11.7902087,5.95750781 C10.6867304,5.95750781 9.78897391,6.86485547 9.78897391,7.98013477 L9.78897391,9.40359375 C9.78897391,9.72780469 9.86525217,10.0342969 10.0000174,10.3061953 C8.91203478,10.434709 8.06478261,11.3714824 8.06478261,12.505166 L8.06478261,15.5684531 C8.06478261,15.8820117 8.31631304,16.1362969 8.6265913,16.1362969 L15.3732,16.1362969 C15.6834783,16.1362969 15.9350087,15.8820117 15.9350087,15.5684531 L15.9350087,12.505166 C15.9351652,11.3715879 15.087913,10.4347617 13.9998783,10.306248 L13.9998783,10.306248 Z M10.9126957,7.9801875 C10.9126957,7.49112891 11.3064,7.09319531 11.790313,7.09319531 L12.2270087,7.09319531 C12.7014261,7.09319531 13.0874609,7.48327148 13.0874609,7.96283789 L13.0874609,9.40369922 C13.0874609,9.89275781 12.6937565,10.2906914 12.2098435,10.2906914 L11.7903652,10.2906914 C11.3064522,10.2906914 10.9127478,9.89275781 10.9127478,9.40369922 L10.9127478,7.9801875 L10.9126957,7.9801875 Z M12.7896522,11.4263262 L12.0000522,12.6609434 L11.2104522,11.4263262 L12.7896522,11.4263262 L12.7896522,11.4263262 Z M9.18850435,15.0007148 L9.18850435,12.5052187 C9.18850435,12.032666 9.49106087,11.6310937 9.91033043,11.4854941 L11.5281913,14.0152148 C11.6317043,14.1770566 11.8093565,14.2747734 12,14.2747734 C12.1905913,14.2747734 12.3682957,14.1770039 12.4718087,14.0152148 L14.0896696,11.4854941 C14.5089391,11.6310937 14.8114957,12.032666 14.8114957,12.5052187 L14.8114957,15.0007148 L9.18850435,15.0007148 L9.18850435,15.0007148 Z" id="Shape"></path>
                    </g>
                </g>
            </g>
        </g>
    </g>
</svg>