<?xml version="1.0" encoding="UTF-8"?>
<svg width="30px" height="30px" viewBox="0 0 30 30" version="1.1" xmlns="http://www.w3.org/2000/svg" xmlns:xlink="http://www.w3.org/1999/xlink">
    <!-- Generator: Sketch 40.3 (33839) - http://www.bohemiancoding.com/sketch -->
    <title>manage</title>
    <desc>Created with Sketch.</desc>
    <defs></defs>
    <g id="Page-1" stroke="none" stroke-width="1" fill="none" fill-rule="evenodd">
        <g id="manage" fill="#28497E">
            <g id="chat" transform="translate(2.000000, 5.000000)">
                <g id="Layer_1">
                    <path d="M19.6324805,0.0404757282 L1.52038477,0.0404757282 C0.682013672,0.0404757282 0,0.731072816 0,1.57994175 L0,12.582932 C0,13.431801 0.682013672,14.1224515 1.52038477,14.1224515 L2.69483203,14.1224515 L2.69483203,18.2186165 C2.69483203,18.4794126 2.84997656,18.7146311 3.08801953,18.8144854 C3.16680469,18.8475922 3.24959766,18.8636117 3.33165234,18.8636117 C3.49744922,18.8636117 3.66029297,18.7980388 3.78216211,18.6746893 L8.27782031,14.1225049 L9.17978906,14.1225049 C9.53158008,14.1225049 9.81671484,13.8337816 9.81671484,13.4775631 C9.81671484,13.1212913 9.53147461,12.832568 9.17978906,12.832568 C9.17978906,12.832568 7.98324609,12.8334223 7.97074805,12.8347039 C7.82245898,12.8449029 7.67691211,12.9067379 7.5635332,13.0214903 L3.96868359,16.6615825 C3.96868359,16.6615825 3.96757617,13.436767 3.96551953,13.4200534 C3.9367793,13.090801 3.66403711,12.832568 3.33144141,12.832568 L1.52038477,12.832568 C1.38443555,12.832568 1.2739043,12.7205922 1.2739043,12.5829854 L1.2739043,1.57994175 C1.2739043,1.44228155 1.38448828,1.33035922 1.52038477,1.33035922 L19.6324805,1.33035922 C19.7684297,1.33035922 19.8789609,1.44233495 19.8789609,1.57994175 L19.8789609,5.80132524 C19.8789609,6.15754369 20.1642012,6.44626699 20.5158867,6.44626699 C20.8675723,6.44626699 21.1528125,6.15754369 21.1528125,5.80132524 L21.1528125,1.57994175 C21.1528125,0.731072816 20.4707988,0.0404757282 19.6324805,0.0404757282 L19.6324805,0.0404757282 Z" id="Shape"></path>
                    <path d="M25.4796152,7.92918447 L12.8014805,7.92918447 C11.9631621,7.92918447 11.2810957,8.61978155 11.2810957,9.46870388 L11.2810957,16.9748689 C11.2810957,17.8237379 11.9631094,18.5143883 12.8014805,18.5143883 L20.7387422,18.5143883 L23.9544844,21.7706019 C24.0763535,21.8940049 24.23925,21.9595243 24.4049941,21.9595243 C24.4870488,21.9595243 24.5698418,21.9434515 24.648627,21.9103981 C24.8865645,21.8105437 25.0418145,21.575432 25.0418145,21.3145291 L25.0418145,18.514335 L25.4795625,18.514335 C26.3178809,18.514335 26.9999473,17.8237379 26.9999473,16.9748155 L26.9999473,9.46865049 C27,8.61978155 26.3179863,7.92918447 25.4796152,7.92918447 L25.4796152,7.92918447 Z M25.7261484,16.9748689 C25.7261484,17.1124757 25.6155645,17.2244515 25.479668,17.2244515 L24.4051523,17.2244515 C24.0699727,17.2244515 23.7958594,17.4867427 23.7707051,17.8196796 C23.7690703,17.8337767 23.7680156,19.7574951 23.7680156,19.7574951 L21.4554023,17.4157233 C21.4529766,17.413267 21.4504453,17.4109709 21.4480195,17.4085146 C21.4389492,17.3995437 21.4303535,17.3917476 21.4222324,17.3847524 C21.3101191,17.2852184 21.1636758,17.2243981 21.0029414,17.2243981 L12.8014805,17.2243981 C12.6655312,17.2243981 12.555,17.1124223 12.555,16.9748155 L12.555,9.46865049 C12.555,9.33099029 12.665584,9.21906796 12.8014805,9.21906796 L25.479668,9.21906796 C25.6155645,9.21906796 25.7261484,9.33104369 25.7261484,9.46865049 L25.7261484,16.9748689 L25.7261484,16.9748689 Z" id="Shape"></path>
                    <path d="M19.1406797,12.5768447 C18.7890996,12.5768447 18.5037539,12.8657816 18.5037539,13.2217864 C18.5037539,13.5777913 18.7890996,13.8667282 19.1406797,13.8667282 C19.4923125,13.8667282 19.7776055,13.5777913 19.7776055,13.2217864 C19.7776055,12.8657816 19.4922598,12.5768447 19.1406797,12.5768447 L19.1406797,12.5768447 Z" id="Shape"></path>
                    <path d="M16.3725469,4.30447087 L4.78037109,4.30447087 C4.42863281,4.30447087 4.14344531,4.59319417 4.14344531,4.94941262 C4.14344531,5.30563107 4.42868555,5.59435437 4.78037109,5.59435437 L16.3725469,5.59435437 C16.7242852,5.59435437 17.0094727,5.30563107 17.0094727,4.94941262 C17.0094727,4.59319417 16.7242852,4.30447087 16.3725469,4.30447087 L16.3725469,4.30447087 Z" id="Shape"></path>
                    <path d="M9.17973633,8.56851942 L4.78037109,8.56851942 C4.42863281,8.56851942 4.14344531,8.85724272 4.14344531,9.21346117 C4.14344531,9.56967961 4.42868555,9.85840291 4.78037109,9.85840291 L9.17973633,9.85840291 C9.53152734,9.85840291 9.81666211,9.56967961 9.81666211,9.21346117 C9.81666211,8.85724272 9.53147461,8.56851942 9.17973633,8.56851942 L9.17973633,8.56851942 Z" id="Shape"></path>
                    <path d="M16.1808574,12.5768447 C15.8293301,12.5768447 15.5439316,12.8657816 15.5439316,13.2217864 C15.5439316,13.5777913 15.8293301,13.8667282 16.1808574,13.8667282 C16.5324902,13.8667282 16.8177832,13.5777913 16.8177832,13.2217864 C16.8177832,12.8657816 16.5324902,12.5768447 16.1808574,12.5768447 L16.1808574,12.5768447 Z" id="Shape"></path>
                    <path d="M22.0998691,12.5768447 C21.7482891,12.5768447 21.4629434,12.8657816 21.4629434,13.2217864 C21.4629434,13.5777913 21.7482891,13.8667282 22.0998691,13.8667282 C22.451502,13.8667282 22.7367949,13.5777913 22.7367949,13.2217864 C22.7367949,12.8657816 22.4514492,12.5768447 22.0998691,12.5768447 L22.0998691,12.5768447 Z" id="Shape"></path>
                </g>
            </g>
        </g>
    </g>
</svg>