<?xml version="1.0" encoding="UTF-8"?>
<svg width="30px" height="30px" viewBox="0 0 30 30" version="1.1" xmlns="http://www.w3.org/2000/svg" xmlns:xlink="http://www.w3.org/1999/xlink">
    <!-- Generator: Sketch 40.3 (33839) - http://www.bohemiancoding.com/sketch -->
    <title>secure</title>
    <desc>Created with Sketch.</desc>
    <defs></defs>
    <g id="Page-1" stroke="none" stroke-width="1" fill="none" fill-rule="evenodd">
        <g id="secure" fill="#28497E">
            <g id="shield" transform="translate(5.000000, 3.000000)">
                <g id="Layer_1">
                    <path d="M18.9631731,2.53469786 L10.9510096,0.139522417 C10.3289904,-0.0464912281 9.67115385,-0.0464912281 9.04894231,0.139522417 L1.036875,2.53464912 C0.445336538,2.71145224 0.0322115385,3.27149123 0.0322115385,3.89663743 L0.0322115385,10.6224659 C0.0322115385,13.7351365 0.946298077,16.7323587 2.67567308,19.2901072 C4.36403846,21.7873294 6.71370192,23.7084795 9.47038462,24.8456628 C9.64115385,24.9160819 9.82057692,24.9513158 10,24.9513158 C10.1794231,24.9513158 10.3588462,24.9160331 10.5295673,24.8456628 C13.28625,23.7084795 15.6359135,21.7874269 17.3242788,19.2901072 C19.0536058,16.7323099 19.9676923,13.7351365 19.9676923,10.6224659 L19.9676923,3.89668616 C19.9677885,3.27153996 19.5546635,2.71145224 18.9631731,2.53469786 L18.9631731,2.53469786 Z M18.8471154,10.6224172 C18.8471154,13.5048246 18.0008654,16.2799708 16.3999519,18.647807 C14.8360096,20.9609649 12.6600481,22.7403021 10.1072115,23.7933723 C10.0380769,23.8218811 9.96197115,23.8218811 9.89283654,23.7933723 C7.34,22.7403021 5.16399038,20.9610136 3.60009615,18.647807 C1.99918269,16.2799708 1.15293269,13.5048733 1.15293269,10.6224172 L1.15293269,3.89663743 C1.15293269,3.77163743 1.23557692,3.65964912 1.35389423,3.62426901 L9.36600962,1.22909357 C9.57341346,1.16705653 9.78673077,1.13611111 10.0000481,1.13611111 C10.2133173,1.13611111 10.4266346,1.16710526 10.6340385,1.2291423 L18.64625,3.62426901 C18.7644712,3.65960039 18.8471154,3.77158869 18.8471154,3.89663743 L18.8471154,10.6224172 L18.8471154,10.6224172 Z" id="Shape"></path>
                    <path d="M16.2091346,5.04653996 L10.2376923,3.26145224 C10.0822115,3.21500975 9.91788462,3.21491228 9.76230769,3.26145224 L3.79100962,5.04653996 C3.43610577,5.15268031 3.18817308,5.48874269 3.18817308,5.86379142 L3.18817308,10.6224172 C3.18817308,13.1369396 3.93855769,15.5487329 5.35807692,17.5971735 C6.45865385,19.1855263 7.92927885,20.4968811 9.61086538,21.3895712 C9.73269231,21.4542885 9.86634615,21.4865984 10.0000481,21.4865984 C10.1337019,21.4865984 10.2673558,21.4542885 10.3892308,21.3895712 C12.0707692,20.4969298 13.5413942,19.1854776 14.6420192,17.5971735 C16.0615385,15.5487817 16.8119231,13.1369396 16.8119231,10.6224172 L16.8119231,5.86379142 C16.811875,5.48864522 16.5639904,5.15263158 16.2091346,5.04653996 L16.2091346,5.04653996 Z M15.69125,10.6224172 C15.69125,12.9019981 15.0113462,15.0880604 13.7250481,16.9442008 C12.7552404,18.3436647 11.4696635,19.5057018 10.0000481,20.3126218 C8.53043269,19.505653 7.24480769,18.3436647 6.27504808,16.9442008 C4.98875,15.0880604 4.30884615,12.9019981 4.30884615,10.6224172 L4.30884615,6.07612086 L10.0000481,4.37475634 L15.69125,6.07612086 L15.69125,10.6224172 L15.69125,10.6224172 Z" id="Shape"></path>
                </g>
            </g>
        </g>
    </g>
</svg>